<svg xmlns="http://www.w3.org/2000/svg" width="30" height="30" viewBox="0 0 30 30">
  <path id="edit" d="M28.571,1.429a4.894,4.894,0,0,0-6.912,0L2.078,21.009c-.009.009-.015.021-.023.03s-.021.027-.031.041a.528.528,0,0,0-.068.13c0,.014-.012.027-.016.041s0,.011-.007.016L.014,29.331a.538.538,0,0,0-.012.11c0,.007,0,.014,0,.021a.54.54,0,0,0,.035.18c0,.014.01.026.016.039a.542.542,0,0,0,.106.161.547.547,0,0,0,.178.118A.539.539,0,0,0,.542,30a.546.546,0,0,0,.125-.015l8.063-1.919a.392.392,0,0,0,.042-.016.5.5,0,0,0,.054-.021.535.535,0,0,0,.109-.067c.013-.01.027-.018.039-.029s.01-.007.014-.011L28.571,8.34A4.893,4.893,0,0,0,28.571,1.429ZM27.8,2.2a3.8,3.8,0,0,1,.353,4.961L22.842,1.843A3.8,3.8,0,0,1,27.8,2.2ZM25.115,10.26,19.74,4.884l.768-.768,5.376,5.375ZM2.694,27.305a.542.542,0,0,0-.768,0l-.411.411L2.9,21.891l2.4-.267-.309,2.781a.542.542,0,0,0,.005.06.555.555,0,0,0-.005.06c0,.018.011.033.015.05a.552.552,0,0,0,.027.09.529.529,0,0,0,.052.1.514.514,0,0,0,.054.069.544.544,0,0,0,.085.073.551.551,0,0,0,.075.046.565.565,0,0,0,.112.036.567.567,0,0,0,.059.019.533.533,0,0,0,.059,0h0a.54.54,0,0,0,.059,0L8.375,24.7l-.267,2.4L2.283,28.484l.411-.411A.543.543,0,0,0,2.694,27.305ZM9.508,24.33,21.659,12.179a.543.543,0,1,0-.768-.768L8.741,23.562l-2.592.288.288-2.592L18.589,9.108a.543.543,0,1,0-.768-.768L5.669,20.491l-1.728.192L18.972,5.652l5.376,5.375L9.316,26.059ZM26.651,8.724,21.275,3.349l.768-.768,5.376,5.375Z" fill="#73e1dd"/>
</svg>
