<svg xmlns="http://www.w3.org/2000/svg" width="3407.373" height="527.347" viewBox="0 0 3407.373 527.347">
  <g id="placholder-histogram-1" transform="translate(-615.258 -198.5)">
    <line id="Line_13" data-name="Line 13" y2="464.367" transform="translate(705.343 198.5)" fill="none" stroke="#1d2c2c" stroke-width="1"/>
    <line id="Line_14" data-name="Line 14" x1="3317.288" transform="translate(705.343 662.867)" fill="none" stroke="#1d2c2c" stroke-width="1"/>
    <text id="_20000" data-name="20000" transform="translate(688.258 259.847)" fill="#1d2c2c" font-size="41" font-family="OpenSans-Regular, Open Sans"><tspan x="-72.05" y="0">20K</tspan></text>
    <text id="_20000-2" data-name="20000" transform="translate(704.83 713.847)" fill="#1d2c2c" font-size="41" font-family="OpenSans-Regular, Open Sans"><tspan x="0" y="0">10 AM</tspan></text>
    <text id="_20000-3" data-name="20000" transform="translate(995.83 713.847)" fill="#1d2c2c" font-size="41" font-family="OpenSans-Regular, Open Sans"><tspan x="0" y="0">11 AM</tspan></text>
    <text id="_20000-4" data-name="20000" transform="translate(1286.83 713.847)" fill="#1d2c2c" font-size="41" font-family="OpenSans-Regular, Open Sans"><tspan x="0" y="0">12 PM</tspan></text>
    <text id="_20000-5" data-name="20000" transform="translate(1575.83 713.847)" fill="#1d2c2c" font-size="41" font-family="OpenSans-Regular, Open Sans"><tspan x="0" y="0">01 PM</tspan></text>
    <text id="_20000-6" data-name="20000" transform="translate(1865.83 713.847)" fill="#1d2c2c" font-size="41" font-family="OpenSans-Regular, Open Sans"><tspan x="0" y="0">02 PM</tspan></text>
    <text id="_20000-7" data-name="20000" transform="translate(2155.831 713.847)" fill="#1d2c2c" font-size="41" font-family="OpenSans-Regular, Open Sans"><tspan x="0" y="0">03 PM</tspan></text>
    <text id="_20000-8" data-name="20000" transform="translate(2444.83 713.847)" fill="#1d2c2c" font-size="41" font-family="OpenSans-Regular, Open Sans"><tspan x="0" y="0">04 PM</tspan></text>
    <text id="_20000-9" data-name="20000" transform="translate(2734.83 713.847)" fill="#1d2c2c" font-size="41" font-family="OpenSans-Regular, Open Sans"><tspan x="0" y="0">05 PM</tspan></text>
    <text id="_20000-10" data-name="20000" transform="translate(3024.83 713.847)" fill="#1d2c2c" font-size="41" font-family="OpenSans-Regular, Open Sans"><tspan x="0" y="0">06 PM</tspan></text>
    <text id="_20000-11" data-name="20000" transform="translate(3313.83 709.847)" fill="#1d2c2c" font-size="41" font-family="OpenSans-Regular, Open Sans"><tspan x="0" y="0">07 PM</tspan></text>
    <text id="_20000-12" data-name="20000" transform="translate(3603.831 713.847)" fill="#1d2c2c" font-size="41" font-family="OpenSans-Regular, Open Sans"><tspan x="0" y="0">08 PM</tspan></text>
    <text id="_20000-13" data-name="20000" transform="translate(3892.83 713.847)" fill="#1d2c2c" font-size="41" font-family="OpenSans-Regular, Open Sans"><tspan x="0" y="0">09 PM</tspan></text>
    <text id="_15000" data-name="15000" transform="translate(688.258 358.592)" fill="#1d2c2c" font-size="41" font-family="OpenSans-Regular, Open Sans"><tspan x="-72.05" y="0">15K</tspan></text>
    <text id="_10000" data-name="10000" transform="translate(688.258 457.336)" fill="#1d2c2c" font-size="41" font-family="OpenSans-Regular, Open Sans"><tspan x="-72.05" y="0">10K</tspan></text>
    <text id="_5000" data-name="5000" transform="translate(689.672 556.081)" fill="#1d2c2c" font-size="41" font-family="OpenSans-Regular, Open Sans"><tspan x="-48.607" y="0">5K</tspan></text>
    <text id="_0" data-name="0" transform="translate(690.919 652.826)" fill="#1d2c2c" font-size="39" font-family="OpenSans-Regular, Open Sans"><tspan x="-22.299" y="0">0</tspan></text>
    <path id="Union_2" data-name="Union 2" d="M8011.693,3827.341v-205.5h110.365v205.5Zm-137.937,0v-282.89H7984.12v282.89Zm-137.938,0v-152.12h110.344v152.12Zm-137.952,0v-290.9h110.359v290.9Zm-137.938,0v-205.5h110.36v205.5Zm-137.937,0v-282.89h110.338v282.89Zm-137.957,0v-152.12H7294.4v152.12Zm-137.938,0v-290.9h110.363v290.9Zm-137.938,0V3432.363H7018.5v394.978Zm-137.954,0V3499.083h110.362v328.259Zm-137.939,0v-85.4h110.363v85.4Zm-137.935,0V3512.426h110.335v314.915Zm-137.959,0V3395h110.363v432.341Zm-137.938,0v-256.2h110.356v256.2Zm-137.941,0v-205.5H6190.85v205.5Zm-137.938,0v-282.89H6052.9v282.89Zm-137.957,0v-152.12h110.365v152.12Zm-137.933,0v-290.9h110.361v290.9Zm-137.938,0V3432.363H5639.06v394.978Zm-137.957,0V3499.083h110.359v328.259Zm-137.938,0v-85.4h110.361v85.4Zm-137.938,0V3512.426h110.344v314.915Zm-137.957,0V3395H5087.3v432.341Zm-137.931,0v-256.2h110.359v256.2Z" transform="translate(-4110.285 -3167.144)" fill="#1d2c2c"/>
  </g>
</svg>
